<svg width="148" height="20" viewBox="0 0 148 20" fill="none" xmlns="http://www.w3.org/2000/svg">
<path d="M142.001 0H6C2.68629 0 0 2.68629 0 6V14C0 17.3137 2.68629 20 6 20H142.001C145.315 20 148.001 17.3137 148.001 14V6C148.001 2.68629 145.315 0 142.001 0Z" fill="#2E8CC2"/>
<path d="M22.7585 6.27273H25.0341L27.4375 12.1364H27.5398L29.9432 6.27273H32.2188V15H30.429V9.3196H30.3565L28.098 14.9574H26.8793L24.6207 9.2983H24.5483V15H22.7585V6.27273ZM35.5714 15.1236C35.1538 15.1236 34.7816 15.0511 34.4549 14.9062C34.1282 14.7585 33.8697 14.5412 33.6793 14.2543C33.4918 13.9645 33.3981 13.6037 33.3981 13.1719C33.3981 12.8082 33.4648 12.5028 33.5984 12.2557C33.7319 12.0085 33.9137 11.8097 34.1438 11.6591C34.3739 11.5085 34.6353 11.3949 34.9279 11.3182C35.2234 11.2415 35.533 11.1875 35.8569 11.1562C36.2376 11.1165 36.5444 11.0795 36.7773 11.0455C37.0103 11.0085 37.1793 10.9545 37.2844 10.8835C37.3896 10.8125 37.4421 10.7074 37.4421 10.5682V10.5426C37.4421 10.2727 37.3569 10.0639 37.1864 9.91619C37.0188 9.76847 36.7802 9.6946 36.4705 9.6946C36.1438 9.6946 35.8839 9.76705 35.6907 9.91193C35.4975 10.054 35.3697 10.233 35.3072 10.4489L33.6282 10.3125C33.7134 9.91477 33.881 9.57102 34.131 9.28125C34.381 8.98864 34.7035 8.7642 35.0984 8.60795C35.4961 8.44886 35.9563 8.36932 36.479 8.36932C36.8427 8.36932 37.1907 8.41193 37.5231 8.49716C37.8583 8.58239 38.1552 8.71449 38.4137 8.89347C38.6751 9.07244 38.881 9.30256 39.0316 9.58381C39.1822 9.86222 39.2575 10.196 39.2575 10.5852V15H37.5359V14.0923H37.4847C37.3796 14.2969 37.239 14.4773 37.0629 14.6335C36.8867 14.7869 36.6751 14.9077 36.4279 14.9957C36.1808 15.081 35.8952 15.1236 35.5714 15.1236ZM36.0913 13.8707C36.3583 13.8707 36.5941 13.8182 36.7987 13.7131C37.0032 13.6051 37.1637 13.4602 37.2802 13.2784C37.3967 13.0966 37.4549 12.8906 37.4549 12.6605V11.9659C37.3981 12.0028 37.32 12.0369 37.2205 12.0682C37.1239 12.0966 37.0146 12.1236 36.8924 12.1491C36.7702 12.1719 36.6481 12.1932 36.5259 12.2131C36.4038 12.2301 36.293 12.2457 36.1935 12.2599C35.9805 12.2912 35.7944 12.3409 35.6353 12.4091C35.4762 12.4773 35.3526 12.5696 35.2646 12.6861C35.1765 12.7997 35.1325 12.9418 35.1325 13.1122C35.1325 13.3594 35.2219 13.5483 35.4009 13.679C35.5827 13.8068 35.8129 13.8707 36.0913 13.8707ZM43.0778 15.1065C42.5806 15.1065 42.1303 14.9787 41.7269 14.723C41.3263 14.4645 41.0082 14.0852 40.7724 13.5852C40.5394 13.0824 40.4229 12.4659 40.4229 11.7358C40.4229 10.9858 40.5437 10.3622 40.7852 9.86506C41.0266 9.36506 41.3477 8.99148 41.7482 8.74432C42.1516 8.49432 42.5934 8.36932 43.0735 8.36932C43.44 8.36932 43.7454 8.43182 43.9897 8.55682C44.2369 8.67898 44.4357 8.83239 44.5863 9.01705C44.7397 9.19886 44.8562 9.37784 44.9357 9.55398H44.9911V6.27273H46.8022V15H45.0124V13.9517H44.9357C44.8505 14.1335 44.7298 14.3139 44.5735 14.4929C44.4201 14.669 44.2198 14.8153 43.9727 14.9318C43.7283 15.0483 43.43 15.1065 43.0778 15.1065ZM43.6531 13.6619C43.9457 13.6619 44.1928 13.5824 44.3945 13.4233C44.5991 13.2614 44.7553 13.0355 44.8633 12.7457C44.9741 12.456 45.0295 12.1165 45.0295 11.7273C45.0295 11.3381 44.9755 11 44.8675 10.7131C44.7596 10.4261 44.6033 10.2045 44.3988 10.0483C44.1942 9.89205 43.9457 9.81392 43.6531 9.81392C43.3548 9.81392 43.1033 9.89489 42.8988 10.0568C42.6942 10.2187 42.5394 10.4432 42.4343 10.7301C42.3292 11.017 42.2766 11.3494 42.2766 11.7273C42.2766 12.108 42.3292 12.4446 42.4343 12.7372C42.5423 13.027 42.6971 13.2543 42.8988 13.419C43.1033 13.581 43.3548 13.6619 43.6531 13.6619ZM51.2777 15.1278C50.6044 15.1278 50.0249 14.9915 49.5391 14.7188C49.0561 14.4432 48.6839 14.054 48.4226 13.5511C48.1612 13.0455 48.0305 12.4474 48.0305 11.7571C48.0305 11.0838 48.1612 10.4929 48.4226 9.98438C48.6839 9.47585 49.0518 9.07955 49.5263 8.79545C50.0036 8.51136 50.5632 8.36932 51.2053 8.36932C51.6371 8.36932 52.0391 8.43892 52.4112 8.57812C52.7862 8.71449 53.1129 8.92045 53.3913 9.19602C53.6726 9.47159 53.8913 9.81818 54.0476 10.2358C54.2038 10.6506 54.282 11.1364 54.282 11.6932V12.1918H48.755V11.0668H52.5732C52.5732 10.8054 52.5163 10.5739 52.4027 10.3722C52.2891 10.1705 52.1314 10.0128 51.9297 9.89915C51.7308 9.78267 51.4993 9.72443 51.2351 9.72443C50.9595 9.72443 50.7152 9.78835 50.5021 9.91619C50.2919 10.0412 50.1271 10.2102 50.0078 10.4233C49.8885 10.6335 49.8274 10.8679 49.8246 11.1264V12.196C49.8246 12.5199 49.8842 12.7997 50.0036 13.0355C50.1257 13.2713 50.2976 13.4531 50.5192 13.581C50.7408 13.7088 51.0036 13.7727 51.3075 13.7727C51.5092 13.7727 51.6939 13.7443 51.8615 13.6875C52.0291 13.6307 52.1726 13.5455 52.2919 13.4318C52.4112 13.3182 52.5021 13.179 52.5646 13.0142L54.2436 13.125C54.1584 13.5284 53.9837 13.8807 53.7195 14.1818C53.4581 14.4801 53.12 14.7131 52.7053 14.8807C52.2933 15.0455 51.8175 15.1278 51.2777 15.1278ZM57.9457 7.79403V6.27273H65.1133V7.79403H62.4414V15H60.6175V7.79403H57.9457ZM68.2678 15.1278C67.6058 15.1278 67.0334 14.9872 66.5504 14.706C66.0703 14.4219 65.6996 14.027 65.4382 13.5213C65.1768 13.0128 65.0462 12.4233 65.0462 11.7528C65.0462 11.0767 65.1768 10.4858 65.4382 9.98011C65.6996 9.47159 66.0703 9.0767 66.5504 8.79545C67.0334 8.51136 67.6058 8.36932 68.2678 8.36932C68.9297 8.36932 69.5007 8.51136 69.9808 8.79545C70.4638 9.0767 70.8359 9.47159 71.0973 9.98011C71.3587 10.4858 71.4893 11.0767 71.4893 11.7528C71.4893 12.4233 71.3587 13.0128 71.0973 13.5213C70.8359 14.027 70.4638 14.4219 69.9808 14.706C69.5007 14.9872 68.9297 15.1278 68.2678 15.1278ZM68.2763 13.7216C68.5774 13.7216 68.8288 13.6364 69.0305 13.4659C69.2322 13.2926 69.3842 13.0568 69.4865 12.7585C69.5916 12.4602 69.6442 12.1207 69.6442 11.7401C69.6442 11.3594 69.5916 11.0199 69.4865 10.7216C69.3842 10.4233 69.2322 10.1875 69.0305 10.0142C68.8288 9.84091 68.5774 9.75426 68.2763 9.75426C67.9723 9.75426 67.7166 9.84091 67.5092 10.0142C67.3047 10.1875 67.1499 10.4233 67.0447 10.7216C66.9425 11.0199 66.8913 11.3594 66.8913 11.7401C66.8913 12.1207 66.9425 12.4602 67.0447 12.7585C67.1499 13.0568 67.3047 13.2926 67.5092 13.4659C67.7166 13.6364 67.9723 13.7216 68.2763 13.7216ZM75.4812 15V6.27273H78.9755C79.6175 6.27273 80.1531 6.3679 80.582 6.55824C81.011 6.74858 81.3335 7.01278 81.5494 7.35085C81.7653 7.68608 81.8732 8.07244 81.8732 8.50994C81.8732 8.85085 81.805 9.15057 81.6687 9.40909C81.5323 9.66477 81.3448 9.875 81.1062 10.0398C80.8704 10.2017 80.6005 10.3168 80.2965 10.3849V10.4702C80.6289 10.4844 80.94 10.5781 81.2298 10.7514C81.5224 10.9247 81.7596 11.1676 81.9414 11.4801C82.1232 11.7898 82.2141 12.1591 82.2141 12.5881C82.2141 13.0511 82.0991 13.4645 81.869 13.8281C81.6417 14.1889 81.305 14.4744 80.859 14.6847C80.413 14.8949 79.8633 15 79.2099 15H75.4812ZM77.3263 13.4915H78.8306C79.3448 13.4915 79.7198 13.3935 79.9556 13.1974C80.1914 12.9986 80.3093 12.7344 80.3093 12.4048C80.3093 12.1634 80.2511 11.9503 80.1346 11.7656C80.0181 11.581 79.8519 11.4361 79.636 11.331C79.4229 11.2259 79.1687 11.1733 78.8732 11.1733H77.3263V13.4915ZM77.3263 9.92472H78.6942C78.9471 9.92472 79.1715 9.88068 79.3675 9.79261C79.5664 9.7017 79.7227 9.57386 79.8363 9.40909C79.9528 9.24432 80.011 9.04688 80.011 8.81676C80.011 8.50142 79.8988 8.24716 79.6744 8.05398C79.4528 7.8608 79.1374 7.7642 78.7283 7.7642H77.3263V9.92472ZM86.3636 15.1278C85.6903 15.1278 85.1108 14.9915 84.625 14.7188C84.142 14.4432 83.7699 14.054 83.5085 13.5511C83.2472 13.0455 83.1165 12.4474 83.1165 11.7571C83.1165 11.0838 83.2472 10.4929 83.5085 9.98438C83.7699 9.47585 84.1378 9.07955 84.6122 8.79545C85.0895 8.51136 85.6491 8.36932 86.2912 8.36932C86.723 8.36932 87.125 8.43892 87.4972 8.57812C87.8722 8.71449 88.1989 8.92045 88.4773 9.19602C88.7585 9.47159 88.9773 9.81818 89.1335 10.2358C89.2898 10.6506 89.3679 11.1364 89.3679 11.6932V12.1918H83.8409V11.0668H87.6591C87.6591 10.8054 87.6023 10.5739 87.4886 10.3722C87.375 10.1705 87.2173 10.0128 87.0156 9.89915C86.8168 9.78267 86.5852 9.72443 86.321 9.72443C86.0455 9.72443 85.8011 9.78835 85.5881 9.91619C85.3778 10.0412 85.2131 10.2102 85.0938 10.4233C84.9744 10.6335 84.9134 10.8679 84.9105 11.1264V12.196C84.9105 12.5199 84.9702 12.7997 85.0895 13.0355C85.2116 13.2713 85.3835 13.4531 85.6051 13.581C85.8267 13.7088 86.0895 13.7727 86.3935 13.7727C86.5952 13.7727 86.7798 13.7443 86.9474 13.6875C87.1151 13.6307 87.2585 13.5455 87.3778 13.4318C87.4972 13.3182 87.5881 13.179 87.6506 13.0142L89.3295 13.125C89.2443 13.5284 89.0696 13.8807 88.8054 14.1818C88.544 14.4801 88.206 14.7131 87.7912 14.8807C87.3793 15.0455 86.9034 15.1278 86.3636 15.1278ZM93.0316 7.79403V6.27273H100.199V7.79403H97.5273V15H95.7035V7.79403H93.0316ZM103.161 11.2159V15H101.346V6.27273H103.11V9.60938H103.186C103.334 9.22301 103.573 8.92045 103.902 8.7017C104.232 8.48011 104.645 8.36932 105.142 8.36932C105.597 8.36932 105.993 8.46875 106.331 8.66761C106.672 8.86364 106.936 9.14631 107.124 9.51562C107.314 9.8821 107.408 10.321 107.405 10.8324V15H105.59V11.1562C105.593 10.7528 105.49 10.4389 105.283 10.2145C105.078 9.99006 104.792 9.87784 104.422 9.87784C104.175 9.87784 103.956 9.9304 103.766 10.0355C103.578 10.1406 103.431 10.294 103.323 10.4957C103.218 10.6946 103.164 10.9347 103.161 11.2159ZM111.817 15.1278C111.143 15.1278 110.564 14.9915 110.078 14.7188C109.595 14.4432 109.223 14.054 108.962 13.5511C108.7 13.0455 108.57 12.4474 108.57 11.7571C108.57 11.0838 108.7 10.4929 108.962 9.98438C109.223 9.47585 109.591 9.07955 110.065 8.79545C110.543 8.51136 111.102 8.36932 111.744 8.36932C112.176 8.36932 112.578 8.43892 112.95 8.57812C113.325 8.71449 113.652 8.92045 113.93 9.19602C114.212 9.47159 114.43 9.81818 114.587 10.2358C114.743 10.6506 114.821 11.1364 114.821 11.6932V12.1918H109.294V11.0668H113.112C113.112 10.8054 113.055 10.5739 112.942 10.3722C112.828 10.1705 112.67 10.0128 112.469 9.89915C112.27 9.78267 112.038 9.72443 111.774 9.72443C111.499 9.72443 111.254 9.78835 111.041 9.91619C110.831 10.0412 110.666 10.2102 110.547 10.4233C110.428 10.6335 110.366 10.8679 110.364 11.1264V12.196C110.364 12.5199 110.423 12.7997 110.543 13.0355C110.665 13.2713 110.837 13.4531 111.058 13.581C111.28 13.7088 111.543 13.7727 111.847 13.7727C112.048 13.7727 112.233 13.7443 112.401 13.6875C112.568 13.6307 112.712 13.5455 112.831 13.4318C112.95 13.3182 113.041 13.179 113.104 13.0142L114.783 13.125C114.697 13.5284 114.523 13.8807 114.259 14.1818C113.997 14.4801 113.659 14.7131 113.244 14.8807C112.832 15.0455 112.357 15.1278 111.817 15.1278ZM116.006 15V8.45455H117.736V9.60938H117.812C117.949 9.22585 118.176 8.9233 118.494 8.7017C118.812 8.48011 119.193 8.36932 119.636 8.36932C120.085 8.36932 120.467 8.48153 120.783 8.70597C121.098 8.92756 121.308 9.22869 121.413 9.60938H121.482C121.615 9.23438 121.857 8.93466 122.206 8.71023C122.558 8.48295 122.974 8.36932 123.455 8.36932C124.065 8.36932 124.561 8.56392 124.942 8.95312C125.325 9.33949 125.517 9.88778 125.517 10.598V15H123.706V10.956C123.706 10.5923 123.609 10.3196 123.416 10.1378C123.223 9.95597 122.982 9.86506 122.692 9.86506C122.362 9.86506 122.105 9.97017 121.92 10.1804C121.736 10.3878 121.643 10.6619 121.643 11.0028V15H119.884V10.9176C119.884 10.5966 119.791 10.3409 119.607 10.1506C119.425 9.96023 119.185 9.86506 118.886 9.86506C118.685 9.86506 118.503 9.91619 118.341 10.0185C118.182 10.1179 118.055 10.2585 117.962 10.4403C117.868 10.6193 117.821 10.8295 117.821 11.071V15H116.006ZM129.934 15.1278C129.261 15.1278 128.681 14.9915 128.195 14.7188C127.712 14.4432 127.34 14.054 127.079 13.5511C126.817 13.0455 126.687 12.4474 126.687 11.7571C126.687 11.0838 126.817 10.4929 127.079 9.98438C127.34 9.47585 127.708 9.07955 128.183 8.79545C128.66 8.51136 129.219 8.36932 129.862 8.36932C130.293 8.36932 130.695 8.43892 131.067 8.57812C131.442 8.71449 131.769 8.92045 132.048 9.19602C132.329 9.47159 132.548 9.81818 132.704 10.2358C132.86 10.6506 132.938 11.1364 132.938 11.6932V12.1918H127.411V11.0668H131.229C131.229 10.8054 131.173 10.5739 131.059 10.3722C130.945 10.1705 130.788 10.0128 130.586 9.89915C130.387 9.78267 130.156 9.72443 129.891 9.72443C129.616 9.72443 129.371 9.78835 129.158 9.91619C128.948 10.0412 128.783 10.2102 128.664 10.4233C128.545 10.6335 128.484 10.8679 128.481 11.1264V12.196C128.481 12.5199 128.54 12.7997 128.66 13.0355C128.782 13.2713 128.954 13.4531 129.175 13.581C129.397 13.7088 129.66 13.7727 129.964 13.7727C130.165 13.7727 130.35 13.7443 130.518 13.6875C130.685 13.6307 130.829 13.5455 130.948 13.4318C131.067 13.3182 131.158 13.179 131.221 13.0142L132.9 13.125C132.815 13.5284 132.64 13.8807 132.376 14.1818C132.114 14.4801 131.776 14.7131 131.362 14.8807C130.95 15.0455 130.474 15.1278 129.934 15.1278ZM136.535 15.1065C136.038 15.1065 135.587 14.9787 135.184 14.723C134.783 14.4645 134.465 14.0852 134.229 13.5852C133.996 13.0824 133.88 12.4659 133.88 11.7358C133.88 10.9858 134.001 10.3622 134.242 9.86506C134.484 9.36506 134.805 8.99148 135.205 8.74432C135.609 8.49432 136.05 8.36932 136.531 8.36932C136.897 8.36932 137.202 8.43182 137.447 8.55682C137.694 8.67898 137.893 8.83239 138.043 9.01705C138.197 9.19886 138.313 9.37784 138.393 9.55398H138.448V6.27273H140.259V15H138.469V13.9517H138.393C138.308 14.1335 138.187 14.3139 138.031 14.4929C137.877 14.669 137.677 14.8153 137.43 14.9318C137.185 15.0483 136.887 15.1065 136.535 15.1065ZM137.11 13.6619C137.403 13.6619 137.65 13.5824 137.852 13.4233C138.056 13.2614 138.212 13.0355 138.32 12.7457C138.431 12.456 138.487 12.1165 138.487 11.7273C138.487 11.3381 138.433 11 138.325 10.7131C138.217 10.4261 138.06 10.2045 137.856 10.0483C137.651 9.89205 137.403 9.81392 137.11 9.81392C136.812 9.81392 136.56 9.89489 136.356 10.0568C136.151 10.2187 135.996 10.4432 135.891 10.7301C135.786 11.017 135.734 11.3494 135.734 11.7273C135.734 12.108 135.786 12.4446 135.891 12.7372C135.999 13.027 136.154 13.2543 136.356 13.419C136.56 13.581 136.812 13.6619 137.11 13.6619Z" fill="white"/>
<path d="M12.5 3L8 7.5H8.027C7.37883 8.22499 6.9166 9.09666 6.68011 10.0399C6.44362 10.9832 6.43996 11.9699 6.66945 12.9149C6.89893 13.8599 7.35468 14.735 7.99745 15.4648C8.64022 16.1945 9.45074 16.7571 10.3592 17.1041C11.2677 17.4511 12.2469 17.5721 13.2125 17.4566C14.1781 17.3411 15.1012 16.9926 15.9022 16.4412C16.7032 15.8898 17.3582 15.1519 17.8108 14.2911C18.2633 13.4304 18.4998 12.4725 18.5 11.5C18.5006 10.0234 17.9554 8.59878 16.969 7.5H17L12.5 3ZM16.5 11C16.777 11 17 11.223 17 11.5C17 13.98 14.98 16 12.5 16C12.3674 16 12.2402 15.9473 12.1464 15.8536C12.0527 15.7598 12 15.6326 12 15.5C12 15.3674 12.0527 15.2402 12.1464 15.1464C12.2402 15.0527 12.3674 15 12.5 15C14.438 15 16 13.438 16 11.5C16 11.223 16.223 11 16.5 11Z" fill="white"/>
</svg>
